Coordinates
version=1
nRows=9
nColumns=36
inDegrees=yes

Units are S.I. units (second, meters, Newtons, ...)
If the header above contains a line with 'inDegrees', this indicates whether rotational values are in degrees (yes) or radians (no).

endheader
time	pelvis_tilt	pelvis_list	pelvis_rotation	pelvis_tx	pelvis_ty	pelvis_tz	hip_flexion_r	hip_adduction_r	hip_rotation_r	knee_angle_r	knee_angle_r_beta	ankle_angle_r	subtalar_angle_r	mtp_angle_r	hip_flexion_l	hip_adduction_l	hip_rotation_l	knee_angle_l	knee_angle_l_beta	ankle_angle_l	subtalar_angle_l	mtp_angle_l	lumbar_extension	lumbar_bending	lumbar_rotation	arm_flex_r	arm_add_r	arm_rot_r	elbow_flex_r	pro_sup_r	arm_flex_l	arm_add_l	arm_rot_l	elbow_flex_l	pro_sup_l
      0.00000000	      4.78801941	     -3.25262432	      3.74083784	      0.66592313	      1.03235899	      0.83448142	    -18.49731698	      5.05166226	     -2.59789366	      5.76669470	      0.10064781	      7.22672918	      0.35572002	     -6.60125945	     21.20011634	     -5.10535858	      0.00031483	     20.82164590	      0.36340628	      6.01112057	     -0.01268203	     -6.60125945	    -15.09873031	      5.53626945	      4.00555036	     12.23101428	    -11.69210155	      7.35213741	     28.90457749	     86.23158079	     -0.21523796	     -4.28087977	     -5.41652504	     19.64535056	     81.39988103
      0.01666670	      5.77663947	     -2.18913345	      3.93000111	      0.66750472	      1.03317735	      0.83265170	    -20.26191815	      4.19754626	     -3.56221692	      5.92187917	      0.10335629	      5.48773254	     -3.28468494	     -6.71697701	     19.00696728	     -3.58135894	      0.65137593	     19.29388601	      0.33674184	      3.88554401	     -1.16741625	     -6.71697701	    -16.92261651	      4.48128578	      4.10707158	     11.66930736	    -10.98894472	      4.24721713	     30.90333244	     85.47297966	      0.56609526	     -4.68026375	     -5.09106340	     19.91912508	     82.38706884
      0.03333330	      6.07100444	     -0.89798581	      3.96198207	      0.67054872	      1.03301518	      0.83068076	    -20.75581862	      2.86110211	     -4.08118232	      7.63531502	      0.13326139	      5.95053885	     -5.30132211	     -6.75430279	     18.08324722	     -1.83133392	      1.15351933	     19.04716249	      0.33243570	      1.11137285	     -2.37317433	     -6.75430279	    -17.10032119	      3.29473620	      3.66363494	     11.61338458	    -10.30624219	      3.75675489	     30.64976134	     85.12474624	      0.75481143	     -4.93943157	     -4.88831587	     19.42950828	     82.26415575
      0.05000000	      6.23823153	     -0.30797852	      4.52132209	      0.67257136	      1.03043593	      0.82781213	    -20.64215833	      2.26641643	     -4.70791555	     10.31661429	      0.18005889	      6.23537959	     -6.49174275	     -6.79853358	     17.85424995	     -0.89684785	      1.83590769	     19.87291760	      0.34684784	      0.55358008	     -2.91398526	     -6.79853358	    -17.10808210	      2.84995217	      2.77673070	     11.39670305	     -9.64005952	      2.84948687	     30.48954968	     84.47348874	      0.73300478	     -5.13230420	     -4.83874723	     19.26800434	     81.82097065
      0.06666670	      6.14138446	     -0.11671966	      4.90402549	      0.67345301	      1.02892857	      0.82430038	    -19.98963879	      2.01628536	     -4.55556329	     13.17854903	      0.23000907	      5.50820721	     -8.17509803	     -6.86764363	     17.87244108	     -0.44533030	      2.16168639	     21.14080993	      0.36897674	      0.87839693	     -3.08523026	     -6.86764363	    -16.81890701	      2.68547965	      2.64964602	     10.62012200	     -9.19981513	      1.21924557	     30.44130828	     82.94524884	      0.96149730	     -5.01243544	     -4.91407781	     18.91573091	     80.40416924
      0.08333330	      5.91323335	      0.22519584	      5.21128504	      0.67518692	      1.03037694	      0.82037813	    -18.81893602	      1.48459530	     -4.20269900	     16.46138194	      0.28730531	      4.10257860	    -10.12239083	     -6.89876509	     17.85489980	      0.12639650	      2.24209885	     22.49337828	      0.39258351	      1.19743675	     -3.43892586	     -6.89876509	    -16.41372139	      2.35704364	      2.32105416	      9.79875217	     -8.81123095	      0.15053885	     30.09798674	     82.32429459	      1.06106851	     -4.95837464	     -5.18370158	     18.93657185	     79.78453961
      0.10000000	      5.67339358	      0.55039256	      5.50457152	      0.67874695	      1.03504157	      0.81574674	    -17.07010781	      0.85987923	     -3.68380546	     20.54794080	      0.35862922	      1.55979655	    -12.27940519	     -6.93044164	     17.59430623	      0.69282773	      2.20997664	     23.67337844	      0.41317840	      1.54732146	     -3.78345209	     -6.93044164	    -15.91109261	      2.10686540	      2.08424225	      8.70392148	     -8.59592657	     -0.91231592	     29.47014922	     81.47247916	      1.30751795	     -4.81751356	     -5.65951584	     18.94316893	     78.93909384
      0.11666670	      5.47660703	      0.96167181	      5.64611324	      0.68242604	      1.04021915	      0.81085651	    -14.45291038	     -0.02465975	     -2.83131490	     26.20647418	      0.45738926	     -2.62257682	    -14.57213280	     -6.95117205	     16.94819116	      1.31240564	      1.89246784	     24.38614192	      0.42561847	      1.76693983	     -4.13883360	     -6.95117205	    -15.45400578	      1.81253351	      1.86102533	      7.51847251	     -8.56284461	     -1.57443242	     28.58814712	     80.80186490	      1.48621251	     -4.66642469	     -6.06417870	     19.10911498	     78.26106350
      0.13333330	      5.16535594	      1.40126441	      5.51002776	      0.68463943	      1.04233184	      0.80669750	    -10.84613752	     -1.06984341	     -1.57960251	     33.09911961	      0.57768862	     -7.85283987	    -16.43697796	     -6.96920800	     16.24165425	      1.86870897	      1.17011369	     24.75079296	      0.43198283	      2.17439591	     -4.28332300	     -6.96920800	    -14.90081482	      1.49007428	      1.82419006	      6.50848151	     -8.60363833	     -2.00601684	     27.58416170	     80.19751510	      1.61710888	     -4.48240006	     -6.45275633	     19.41080777	     77.61564771
